<?xml version="1.0" encoding="UTF-8" standalone="no"?>
<!DOCTYPE svg PUBLIC "-//W3C//DTD SVG 1.1//EN" "http://www.w3.org/Graphics/SVG/1.1/DTD/svg11.dtd">
<svg width="100%" height="100%" viewBox="0 0 87 87" version="1.1" xmlns="http://www.w3.org/2000/svg" xmlns:xlink="http://www.w3.org/1999/xlink" xml:space="preserve" xmlns:serif="http://www.serif.com/" style="fill-rule:evenodd;clip-rule:evenodd;stroke-linejoin:round;stroke-miterlimit:2;">
    <g transform="matrix(1,0,0,-1,5,87.325)">
        <path d="M69.787,1.066L71.063,1.261L72.295,1.578L73.475,2.01L74.599,2.551L75.659,3.195L76.648,3.935L77.561,4.764L78.39,5.677L79.13,6.666L79.774,7.726L80.315,8.849L80.747,10.03L81.064,11.262L81.259,12.538L81.325,13.852L81.325,68.473L81.259,69.787L81.064,71.063L80.747,72.295L80.315,73.475L79.774,74.599L79.13,75.659L78.39,76.648L77.561,77.561L76.648,78.39L75.659,79.13L74.599,79.774L73.475,80.315L72.295,80.747L71.063,81.064L69.787,81.259L68.473,81.325L13.852,81.325L12.538,81.259L11.262,81.064L10.03,80.747L8.849,80.315L7.726,79.774L6.666,79.13L5.677,78.39L4.764,77.561L3.935,76.648L3.195,75.659L2.551,74.599L2.01,73.475L1.578,72.295L1.261,71.063L1.066,69.787L1,68.473L1,13.852L1.066,12.538L1.261,11.262L1.578,10.03L2.01,8.849L2.551,7.726L3.195,6.666L3.935,5.677L4.764,4.764L5.677,3.935L6.666,3.195L7.726,2.551L8.849,2.01L10.03,1.578L11.262,1.261L12.538,1.066L13.852,1L68.473,1L69.787,1.066ZM32.942,47.935L32.32,48.051L31.718,48.24L31.142,48.503L30.599,48.836L30.096,49.239L29.64,49.708L29.237,50.243L19.53,65.382L19.174,66.044L18.924,66.728L18.775,67.43L18.727,68.146L18.751,68.633L18.824,69.115L18.942,69.588L19.105,70.048L19.31,70.493L19.556,70.918L19.84,71.319L20.161,71.694L20.517,72.038L20.907,72.348L21.327,72.621L21.778,72.852L22.256,73.038L22.76,73.175L23.287,73.26L23.837,73.289L24.472,73.25L25.094,73.135L25.696,72.945L26.272,72.682L26.815,72.349L27.318,71.947L27.774,71.477L28.177,70.943L37.884,55.803L38.24,55.141L38.491,54.458L38.639,53.756L38.687,53.039L38.663,52.552L38.59,52.071L38.472,51.598L38.309,51.137L38.104,50.693L37.859,50.268L37.574,49.866L37.253,49.491L36.897,49.147L36.507,48.837L36.087,48.565L35.636,48.334L35.158,48.148L34.655,48.011L34.127,47.925L33.577,47.896L32.942,47.935ZM23.282,9.065L22.749,9.151L22.241,9.29L21.759,9.478L21.306,9.712L20.882,9.987L20.491,10.3L20.133,10.647L19.81,11.025L19.525,11.429L19.279,11.857L19.073,12.304L18.91,12.766L18.792,13.241L18.719,13.723L18.695,14.211L18.743,14.913L18.891,15.613L19.142,16.294L19.498,16.943L54.18,70.943L54.583,71.477L55.039,71.947L55.542,72.349L56.085,72.682L56.661,72.945L57.263,73.135L57.885,73.25L58.52,73.289L59.07,73.26L59.597,73.175L60.101,73.038L60.579,72.852L61.029,72.621L61.45,72.348L61.84,72.038L62.196,71.694L62.517,71.319L62.801,70.918L63.047,70.493L63.252,70.048L63.415,69.588L63.533,69.115L63.606,68.633L63.63,68.146L63.582,67.43L63.433,66.728L63.183,66.044L62.827,65.382L28.177,11.382L27.774,10.848L27.318,10.378L26.815,9.976L26.272,9.642L25.696,9.38L25.094,9.19L24.472,9.075L23.837,9.036L23.282,9.065ZM57.885,9.075L57.263,9.19L56.661,9.38L56.085,9.642L55.542,9.976L55.039,10.378L54.583,10.848L54.18,11.382L44.473,26.521L44.117,27.184L43.866,27.867L43.718,28.569L43.67,29.286L43.694,29.772L43.767,30.254L43.885,30.727L44.048,31.188L44.253,31.632L44.498,32.057L44.783,32.459L45.104,32.833L45.46,33.178L45.85,33.488L46.27,33.76L46.721,33.991L47.199,34.177L47.702,34.314L48.23,34.399L48.78,34.428L49.415,34.39L50.037,34.274L50.639,34.084L51.215,33.822L51.758,33.488L52.261,33.086L52.717,32.617L53.12,32.082L62.827,16.943L63.183,16.28L63.433,15.597L63.582,14.895L63.63,14.179L63.606,13.692L63.533,13.21L63.415,12.737L63.252,12.277L63.047,11.832L62.801,11.407L62.517,11.005L62.196,10.631L61.84,10.287L61.45,9.976L61.029,9.704L60.579,9.473L60.101,9.287L59.597,9.15L59.07,9.065L58.52,9.036L57.885,9.075Z" style="fill-opacity:0.25;fill-rule:nonzero;"/>
    </g>
    <g transform="matrix(1,0,0,-1,-0.999995,81.325)">
        <path d="M69.787,1.066L71.063,1.261L72.295,1.578L73.475,2.01L74.599,2.551L75.659,3.195L76.648,3.935L77.561,4.764L78.39,5.677L79.13,6.666L79.774,7.726L80.315,8.849L80.747,10.03L81.064,11.262L81.259,12.538L81.325,13.852L81.325,68.473L81.259,69.787L81.064,71.063L80.747,72.295L80.315,73.475L79.774,74.599L79.13,75.659L78.39,76.648L77.561,77.561L76.648,78.39L75.659,79.13L74.599,79.774L73.475,80.315L72.295,80.747L71.063,81.064L69.787,81.259L68.473,81.325L13.852,81.325L12.538,81.259L11.262,81.064L10.03,80.747L8.849,80.315L7.726,79.774L6.666,79.13L5.677,78.39L4.764,77.561L3.935,76.648L3.195,75.659L2.551,74.599L2.01,73.475L1.578,72.295L1.261,71.063L1.066,69.787L1,68.473L1,13.852L1.066,12.538L1.261,11.262L1.578,10.03L2.01,8.849L2.551,7.726L3.195,6.666L3.935,5.677L4.764,4.764L5.677,3.935L6.666,3.195L7.726,2.551L8.849,2.01L10.03,1.578L11.262,1.261L12.538,1.066L13.852,1L68.473,1L69.787,1.066ZM32.942,47.935L32.32,48.051L31.718,48.24L31.142,48.503L30.599,48.836L30.096,49.239L29.64,49.708L29.237,50.243L19.53,65.382L19.174,66.044L18.924,66.728L18.775,67.43L18.727,68.146L18.751,68.633L18.824,69.115L18.942,69.588L19.105,70.048L19.31,70.493L19.556,70.918L19.84,71.319L20.161,71.694L20.517,72.038L20.907,72.348L21.327,72.621L21.778,72.852L22.256,73.038L22.76,73.175L23.287,73.26L23.837,73.289L24.472,73.25L25.094,73.135L25.696,72.945L26.272,72.682L26.815,72.349L27.318,71.947L27.774,71.477L28.177,70.943L37.884,55.803L38.24,55.141L38.491,54.458L38.639,53.756L38.687,53.039L38.663,52.552L38.59,52.071L38.472,51.598L38.309,51.137L38.104,50.693L37.859,50.268L37.574,49.866L37.253,49.491L36.897,49.147L36.507,48.837L36.087,48.565L35.636,48.334L35.158,48.148L34.655,48.011L34.127,47.925L33.577,47.896L32.942,47.935ZM23.282,9.065L22.749,9.151L22.241,9.29L21.759,9.478L21.306,9.712L20.882,9.987L20.491,10.3L20.133,10.647L19.81,11.025L19.525,11.429L19.279,11.857L19.073,12.304L18.91,12.766L18.792,13.241L18.719,13.723L18.695,14.211L18.743,14.913L18.891,15.613L19.142,16.294L19.498,16.943L54.18,70.943L54.583,71.477L55.039,71.947L55.542,72.349L56.085,72.682L56.661,72.945L57.263,73.135L57.885,73.25L58.52,73.289L59.07,73.26L59.597,73.175L60.101,73.038L60.579,72.852L61.029,72.621L61.45,72.348L61.84,72.038L62.196,71.694L62.517,71.319L62.801,70.918L63.047,70.493L63.252,70.048L63.415,69.588L63.533,69.115L63.606,68.633L63.63,68.146L63.582,67.43L63.433,66.728L63.183,66.044L62.827,65.382L28.177,11.382L27.774,10.848L27.318,10.378L26.815,9.976L26.272,9.642L25.696,9.38L25.094,9.19L24.472,9.075L23.837,9.036L23.282,9.065ZM57.885,9.075L57.263,9.19L56.661,9.38L56.085,9.642L55.542,9.976L55.039,10.378L54.583,10.848L54.18,11.382L44.473,26.521L44.117,27.184L43.866,27.867L43.718,28.569L43.67,29.286L43.694,29.772L43.767,30.254L43.885,30.727L44.048,31.188L44.253,31.632L44.498,32.057L44.783,32.459L45.104,32.833L45.46,33.178L45.85,33.488L46.27,33.76L46.721,33.991L47.199,34.177L47.702,34.314L48.23,34.399L48.78,34.428L49.415,34.39L50.037,34.274L50.639,34.084L51.215,33.822L51.758,33.488L52.261,33.086L52.717,32.617L53.12,32.082L62.827,16.943L63.183,16.28L63.433,15.597L63.582,14.895L63.63,14.179L63.606,13.692L63.533,13.21L63.415,12.737L63.252,12.277L63.047,11.832L62.801,11.407L62.517,11.005L62.196,10.631L61.84,10.287L61.45,9.976L61.029,9.704L60.579,9.473L60.101,9.287L59.597,9.15L59.07,9.065L58.52,9.036L57.885,9.075Z" style="fill:rgb(207,153,14);fill-rule:nonzero;"/>
    </g>
</svg>
